G04*
G04 #@! TF.GenerationSoftware,Altium Limited,Altium Designer,24.0.1 (36)*
G04*
G04 Layer_Physical_Order=2*
G04 Layer_Color=16711680*
%FSLAX43Y43*%
%MOMM*%
G71*
G04*
G04 #@! TF.SameCoordinates,EBF473D2-59F7-4800-8C67-C9A5536F996E*
G04*
G04*
G04 #@! TF.FilePolarity,Positive*
G04*
G01*
G75*
%ADD25R,2.300X2.300*%
%ADD27C,1.200*%
%ADD28R,3.000X7.000*%
G04:AMPARAMS|DCode=29|XSize=2mm|YSize=2.5mm|CornerRadius=0.5mm|HoleSize=0mm|Usage=FLASHONLY|Rotation=270.000|XOffset=0mm|YOffset=0mm|HoleType=Round|Shape=RoundedRectangle|*
%AMROUNDEDRECTD29*
21,1,2.000,1.500,0,0,270.0*
21,1,1.000,2.500,0,0,270.0*
1,1,1.000,-0.750,-0.500*
1,1,1.000,-0.750,0.500*
1,1,1.000,0.750,0.500*
1,1,1.000,0.750,-0.500*
%
%ADD29ROUNDEDRECTD29*%
%ADD30C,3.300*%
G04:AMPARAMS|DCode=31|XSize=2.2mm|YSize=2.5mm|CornerRadius=0.55mm|HoleSize=0mm|Usage=FLASHONLY|Rotation=90.000|XOffset=0mm|YOffset=0mm|HoleType=Round|Shape=RoundedRectangle|*
%AMROUNDEDRECTD31*
21,1,2.200,1.400,0,0,90.0*
21,1,1.100,2.500,0,0,90.0*
1,1,1.100,0.700,0.550*
1,1,1.100,0.700,-0.550*
1,1,1.100,-0.700,-0.550*
1,1,1.100,-0.700,0.550*
%
%ADD31ROUNDEDRECTD31*%
%ADD32R,2.500X2.000*%
G04:AMPARAMS|DCode=33|XSize=2mm|YSize=2.5mm|CornerRadius=0.5mm|HoleSize=0mm|Usage=FLASHONLY|Rotation=0.000|XOffset=0mm|YOffset=0mm|HoleType=Round|Shape=RoundedRectangle|*
%AMROUNDEDRECTD33*
21,1,2.000,1.500,0,0,0.0*
21,1,1.000,2.500,0,0,0.0*
1,1,1.000,0.500,-0.750*
1,1,1.000,-0.500,-0.750*
1,1,1.000,-0.500,0.750*
1,1,1.000,0.500,0.750*
%
%ADD33ROUNDEDRECTD33*%
%ADD34R,2.000X2.500*%
%ADD35C,2.300*%
%ADD36C,2.400*%
%ADD37R,2.200X2.200*%
%ADD38R,2.200X2.200*%
%ADD39C,1.800*%
D25*
X46000Y68600D02*
D03*
D27*
X48800Y44660D02*
X67860D01*
X74400Y51200D01*
X69940Y14660D02*
X74400Y10200D01*
X47800Y14660D02*
X69940D01*
X4784Y23660D02*
X8800D01*
X3299Y22174D02*
X4784Y23660D01*
X4409Y26200D02*
X8800D01*
X1499Y23289D02*
X4409Y26200D01*
X1499Y8101D02*
Y23289D01*
Y8101D02*
X4847Y4753D01*
X18212D01*
X20698Y7239D01*
X13780Y24940D02*
X16000D01*
X8900Y29820D02*
X13780Y24940D01*
X8900Y29820D02*
Y31400D01*
X18005Y32560D02*
X27403Y41958D01*
X16000Y32560D02*
X18005D01*
X7286Y38964D02*
X10563D01*
X14427Y35100D01*
X16000D01*
X48000Y26240D02*
Y27838D01*
X50060Y29898D01*
Y39700D01*
X45640Y44120D02*
X50060Y39700D01*
X45640Y44120D02*
Y47727D01*
X43558Y49809D02*
X45640Y47727D01*
X39327Y49809D02*
X43558D01*
X19538Y30020D02*
X39327Y49809D01*
X16000Y30020D02*
X19538D01*
X12209Y6553D02*
X15186D01*
X6850Y11913D02*
X12209Y6553D01*
X6850Y11913D02*
Y19202D01*
X8023D01*
X8800Y19979D01*
Y21120D01*
X53429Y53670D02*
X55899Y51200D01*
X45691Y53670D02*
X53429D01*
X42745Y56617D02*
X45691Y53670D01*
X17116Y56617D02*
X42745D01*
X16202Y57531D02*
X17116Y56617D01*
X16202Y57531D02*
Y73736D01*
X8175D02*
X16202D01*
X1495Y67056D02*
X8175Y73736D01*
X1495Y38791D02*
Y67056D01*
Y38791D02*
X6347Y33940D01*
X8900D01*
X14630Y40180D02*
X16000D01*
X13154Y41656D02*
X14630Y40180D01*
X13154Y41656D02*
Y45999D01*
X10563Y48590D02*
X13154Y45999D01*
X3959Y48590D02*
X10563D01*
X3019Y49530D02*
X3959Y48590D01*
X3019Y49530D02*
Y63246D01*
X4733Y64960D01*
X6000D01*
X46778Y49740D02*
X48800D01*
X44158Y52360D02*
X46778Y49740D01*
X6600Y52360D02*
X44158D01*
X22240Y60071D02*
Y61400D01*
Y60071D02*
X23231Y59080D01*
X43253D01*
X46326Y62154D01*
X65808D01*
X66900Y63246D01*
Y66800D01*
X41400Y22400D02*
X43098D01*
X45158Y24460D01*
Y27839D01*
X47900Y30582D01*
Y32160D01*
X49400Y60100D02*
X68852D01*
X76501Y52451D01*
Y9220D02*
Y52451D01*
X75333Y8052D02*
X76501Y9220D01*
X24406Y8052D02*
X75333D01*
X20218Y12240D02*
X24406Y8052D01*
X16000Y12240D02*
X20218D01*
X12008Y63960D02*
X14200D01*
X8468Y67500D02*
X12008Y63960D01*
X6000Y67500D02*
X8468D01*
X73900Y66800D02*
Y70866D01*
X72340Y72426D02*
X73900Y70866D01*
X49826Y72426D02*
X72340D01*
X46000Y68600D02*
X49826Y72426D01*
X44643Y14660D02*
X47800D01*
X44523Y14780D02*
X44643Y14660D01*
X41400Y14780D02*
X44523D01*
X16000D02*
X41400D01*
X13743D02*
X16000D01*
X11223Y17300D02*
X13743Y14780D01*
X9000Y17300D02*
X11223D01*
X45698Y37240D02*
X47900D01*
X43558Y35100D02*
X45698Y37240D01*
X41400Y35100D02*
X43558D01*
X45698Y34700D02*
X47900D01*
X43558Y32560D02*
X45698Y34700D01*
X41400Y32560D02*
X43558D01*
D28*
X73900Y66800D02*
D03*
X66900D02*
D03*
D29*
X8900Y31400D02*
D03*
Y33940D02*
D03*
X48800Y49740D02*
D03*
X48000Y26240D02*
D03*
X6600Y54900D02*
D03*
Y52360D02*
D03*
X48800Y47200D02*
D03*
X49400Y57560D02*
D03*
X6000Y64960D02*
D03*
Y62420D02*
D03*
X47900Y34700D02*
D03*
Y32160D02*
D03*
X9000Y14760D02*
D03*
X8800Y23660D02*
D03*
Y21120D02*
D03*
X47800Y17200D02*
D03*
D30*
X65200Y3700D02*
D03*
X5800Y8900D02*
D03*
X74400Y78400D02*
D03*
X6700Y77000D02*
D03*
D31*
X48000Y23700D02*
D03*
D32*
Y21160D02*
D03*
X8900Y36480D02*
D03*
X6600Y57440D02*
D03*
X48800Y44660D02*
D03*
X49400Y60100D02*
D03*
X6000Y67500D02*
D03*
X47900Y37240D02*
D03*
X9000Y17300D02*
D03*
X8800Y26200D02*
D03*
X47800Y14660D02*
D03*
D33*
X8400Y46200D02*
D03*
D34*
X5860D02*
D03*
D35*
X51700Y68600D02*
D03*
X74400Y10200D02*
D03*
D36*
X55899Y51200D02*
D03*
Y10200D02*
D03*
X74400Y51200D02*
D03*
D37*
X14200Y63960D02*
D03*
Y66500D02*
D03*
Y69040D02*
D03*
Y71580D02*
D03*
X27320Y61400D02*
D03*
X29860D02*
D03*
X32400D02*
D03*
X34940D02*
D03*
X37480D02*
D03*
D38*
X24780D02*
D03*
X22240D02*
D03*
X19700D02*
D03*
X41400Y47800D02*
D03*
X16000D02*
D03*
Y45260D02*
D03*
Y42720D02*
D03*
Y40180D02*
D03*
Y37640D02*
D03*
Y35100D02*
D03*
Y32560D02*
D03*
Y30020D02*
D03*
Y27480D02*
D03*
Y24940D02*
D03*
Y22400D02*
D03*
Y19860D02*
D03*
Y17320D02*
D03*
Y14780D02*
D03*
Y12240D02*
D03*
X41400D02*
D03*
Y14780D02*
D03*
Y17320D02*
D03*
Y19860D02*
D03*
Y22400D02*
D03*
Y24940D02*
D03*
Y27480D02*
D03*
Y30020D02*
D03*
Y32560D02*
D03*
Y35100D02*
D03*
Y37640D02*
D03*
Y40180D02*
D03*
Y42720D02*
D03*
Y45260D02*
D03*
D39*
X3299Y22174D02*
D03*
X20698Y7239D02*
D03*
X27403Y41958D02*
D03*
X7286Y38964D02*
D03*
X15186Y6553D02*
D03*
M02*
