G04*
G04 #@! TF.GenerationSoftware,Altium Limited,Altium Designer,24.0.1 (36)*
G04*
G04 Layer_Color=255*
%FSLAX43Y43*%
%MOMM*%
G71*
G04*
G04 #@! TF.SameCoordinates,EBF473D2-59F7-4800-8C67-C9A5536F996E*
G04*
G04*
G04 #@! TF.FilePolarity,Positive*
G04*
G01*
G75*
%ADD25R,2.300X2.300*%
%ADD28R,3.000X7.000*%
G04:AMPARAMS|DCode=29|XSize=2mm|YSize=2.5mm|CornerRadius=0.5mm|HoleSize=0mm|Usage=FLASHONLY|Rotation=270.000|XOffset=0mm|YOffset=0mm|HoleType=Round|Shape=RoundedRectangle|*
%AMROUNDEDRECTD29*
21,1,2.000,1.500,0,0,270.0*
21,1,1.000,2.500,0,0,270.0*
1,1,1.000,-0.750,-0.500*
1,1,1.000,-0.750,0.500*
1,1,1.000,0.750,0.500*
1,1,1.000,0.750,-0.500*
%
%ADD29ROUNDEDRECTD29*%
%ADD30C,3.300*%
G04:AMPARAMS|DCode=31|XSize=2.2mm|YSize=2.5mm|CornerRadius=0.55mm|HoleSize=0mm|Usage=FLASHONLY|Rotation=90.000|XOffset=0mm|YOffset=0mm|HoleType=Round|Shape=RoundedRectangle|*
%AMROUNDEDRECTD31*
21,1,2.200,1.400,0,0,90.0*
21,1,1.100,2.500,0,0,90.0*
1,1,1.100,0.700,0.550*
1,1,1.100,0.700,-0.550*
1,1,1.100,-0.700,-0.550*
1,1,1.100,-0.700,0.550*
%
%ADD31ROUNDEDRECTD31*%
%ADD32R,2.500X2.000*%
G04:AMPARAMS|DCode=33|XSize=2mm|YSize=2.5mm|CornerRadius=0.5mm|HoleSize=0mm|Usage=FLASHONLY|Rotation=0.000|XOffset=0mm|YOffset=0mm|HoleType=Round|Shape=RoundedRectangle|*
%AMROUNDEDRECTD33*
21,1,2.000,1.500,0,0,0.0*
21,1,1.000,2.500,0,0,0.0*
1,1,1.000,0.500,-0.750*
1,1,1.000,-0.500,-0.750*
1,1,1.000,-0.500,0.750*
1,1,1.000,0.500,0.750*
%
%ADD33ROUNDEDRECTD33*%
%ADD34R,2.000X2.500*%
%ADD35C,2.300*%
%ADD36C,2.400*%
%ADD37R,2.200X2.200*%
%ADD38R,2.200X2.200*%
D25*
X46000Y68600D02*
D03*
D28*
X73900Y66800D02*
D03*
X66900D02*
D03*
D29*
X8900Y31400D02*
D03*
Y33940D02*
D03*
X48800Y49740D02*
D03*
X48000Y26240D02*
D03*
X6600Y54900D02*
D03*
Y52360D02*
D03*
X48800Y47200D02*
D03*
X49400Y57560D02*
D03*
X6000Y64960D02*
D03*
Y62420D02*
D03*
X47900Y34700D02*
D03*
Y32160D02*
D03*
X9000Y14760D02*
D03*
X8800Y23660D02*
D03*
Y21120D02*
D03*
X47800Y17200D02*
D03*
D30*
X65200Y3700D02*
D03*
X5800Y8900D02*
D03*
X74400Y78400D02*
D03*
X6700Y77000D02*
D03*
D31*
X48000Y23700D02*
D03*
D32*
Y21160D02*
D03*
X8900Y36480D02*
D03*
X6600Y57440D02*
D03*
X48800Y44660D02*
D03*
X49400Y60100D02*
D03*
X6000Y67500D02*
D03*
X47900Y37240D02*
D03*
X9000Y17300D02*
D03*
X8800Y26200D02*
D03*
X47800Y14660D02*
D03*
D33*
X8400Y46200D02*
D03*
D34*
X5860D02*
D03*
D35*
X51700Y68600D02*
D03*
X74400Y10200D02*
D03*
D36*
X55899Y51200D02*
D03*
Y10200D02*
D03*
X74400Y51200D02*
D03*
D37*
X14200Y63960D02*
D03*
Y66500D02*
D03*
Y69040D02*
D03*
Y71580D02*
D03*
X27320Y61400D02*
D03*
X29860D02*
D03*
X32400D02*
D03*
X34940D02*
D03*
X37480D02*
D03*
D38*
X24780D02*
D03*
X22240D02*
D03*
X19700D02*
D03*
X41400Y47800D02*
D03*
X16000D02*
D03*
Y45260D02*
D03*
Y42720D02*
D03*
Y40180D02*
D03*
Y37640D02*
D03*
Y35100D02*
D03*
Y32560D02*
D03*
Y30020D02*
D03*
Y27480D02*
D03*
Y24940D02*
D03*
Y22400D02*
D03*
Y19860D02*
D03*
Y17320D02*
D03*
Y14780D02*
D03*
Y12240D02*
D03*
X41400D02*
D03*
Y14780D02*
D03*
Y17320D02*
D03*
Y19860D02*
D03*
Y22400D02*
D03*
Y24940D02*
D03*
Y27480D02*
D03*
Y30020D02*
D03*
Y32560D02*
D03*
Y35100D02*
D03*
Y37640D02*
D03*
Y40180D02*
D03*
Y42720D02*
D03*
Y45260D02*
D03*
M02*
