G04*
G04 #@! TF.GenerationSoftware,Altium Limited,Altium Designer,24.0.1 (36)*
G04*
G04 Layer_Physical_Order=1*
G04 Layer_Color=255*
%FSLAX43Y43*%
%MOMM*%
G71*
G04*
G04 #@! TF.SameCoordinates,EBF473D2-59F7-4800-8C67-C9A5536F996E*
G04*
G04*
G04 #@! TF.FilePolarity,Positive*
G04*
G01*
G75*
%ADD25R,2.300X2.300*%
%ADD27C,1.200*%
%ADD28R,3.000X7.000*%
G04:AMPARAMS|DCode=29|XSize=2mm|YSize=2.5mm|CornerRadius=0.5mm|HoleSize=0mm|Usage=FLASHONLY|Rotation=270.000|XOffset=0mm|YOffset=0mm|HoleType=Round|Shape=RoundedRectangle|*
%AMROUNDEDRECTD29*
21,1,2.000,1.500,0,0,270.0*
21,1,1.000,2.500,0,0,270.0*
1,1,1.000,-0.750,-0.500*
1,1,1.000,-0.750,0.500*
1,1,1.000,0.750,0.500*
1,1,1.000,0.750,-0.500*
%
%ADD29ROUNDEDRECTD29*%
%ADD30C,3.300*%
G04:AMPARAMS|DCode=31|XSize=2.2mm|YSize=2.5mm|CornerRadius=0.55mm|HoleSize=0mm|Usage=FLASHONLY|Rotation=90.000|XOffset=0mm|YOffset=0mm|HoleType=Round|Shape=RoundedRectangle|*
%AMROUNDEDRECTD31*
21,1,2.200,1.400,0,0,90.0*
21,1,1.100,2.500,0,0,90.0*
1,1,1.100,0.700,0.550*
1,1,1.100,0.700,-0.550*
1,1,1.100,-0.700,-0.550*
1,1,1.100,-0.700,0.550*
%
%ADD31ROUNDEDRECTD31*%
%ADD32R,2.500X2.000*%
G04:AMPARAMS|DCode=33|XSize=2mm|YSize=2.5mm|CornerRadius=0.5mm|HoleSize=0mm|Usage=FLASHONLY|Rotation=0.000|XOffset=0mm|YOffset=0mm|HoleType=Round|Shape=RoundedRectangle|*
%AMROUNDEDRECTD33*
21,1,2.000,1.500,0,0,0.0*
21,1,1.000,2.500,0,0,0.0*
1,1,1.000,0.500,-0.750*
1,1,1.000,-0.500,-0.750*
1,1,1.000,-0.500,0.750*
1,1,1.000,0.500,0.750*
%
%ADD33ROUNDEDRECTD33*%
%ADD34R,2.000X2.500*%
%ADD35C,2.300*%
%ADD36C,2.400*%
%ADD37R,2.200X2.200*%
%ADD38R,2.200X2.200*%
%ADD39C,1.800*%
D25*
X46000Y68600D02*
D03*
D27*
X45992Y17200D02*
X46280D01*
X13052Y8394D02*
X13089Y8357D01*
X24780Y62611D02*
Y67088D01*
X21233Y45722D02*
X23009Y47498D01*
X48000Y19583D02*
X48663D01*
X46280Y17200D02*
X47800D01*
X45640Y16561D02*
X46280Y17200D01*
X45640Y12446D02*
Y16561D01*
X36851Y3656D02*
X45640Y12446D01*
X14146Y3656D02*
X36851D01*
X13052Y4750D02*
X14146Y3656D01*
X13052Y4750D02*
Y8394D01*
X9000Y12446D02*
X13052Y8394D01*
X9000Y12446D02*
Y14760D01*
X2308Y23165D02*
X3299Y22174D01*
X2308Y23165D02*
Y69444D01*
X6956Y74092D01*
X17777D01*
X24780Y67088D01*
X20698Y7239D02*
X21233Y7774D01*
Y45722D01*
X27320Y51809D02*
Y61400D01*
X35833Y37640D02*
X41400D01*
X34058Y35865D02*
X35833Y37640D01*
X25803Y35865D02*
X34058D01*
X23009Y38659D02*
X25803Y35865D01*
X23009Y38659D02*
Y47498D01*
X27320Y51809D01*
X48000Y23700D02*
X50033D01*
X51787Y21946D01*
Y10312D02*
Y21946D01*
Y10312D02*
X54022Y8077D01*
X56918D01*
X58010Y9169D01*
Y66421D01*
X53768Y70663D02*
X58010Y66421D01*
X43939Y70663D02*
X53768D01*
X43939Y58493D02*
Y70663D01*
X27403Y41958D02*
X43939Y58493D01*
X48000Y19583D02*
Y21160D01*
X48663Y19583D02*
X49958Y18288D01*
Y7087D02*
Y18288D01*
X45028Y2156D02*
X49958Y7087D01*
X12852Y2156D02*
X45028D01*
X11452Y3556D02*
X12852Y2156D01*
X11452Y3556D02*
Y6883D01*
X5102Y13233D02*
X11452Y6883D01*
X5102Y13233D02*
Y36779D01*
X7286Y38964D01*
X8110Y54900D02*
X8760Y55550D01*
Y61683D01*
X9522Y62420D01*
X6000D02*
X9522D01*
X11658Y71580D02*
X14200D01*
X9522Y69444D02*
X11658Y71580D01*
X9522Y62420D02*
Y69444D01*
X6600Y54900D02*
X8110D01*
X3832Y67500D02*
X6000D01*
X3832Y58166D02*
Y67500D01*
Y58166D02*
X6600Y57440D01*
X35732Y45260D02*
X41400D01*
X29054Y38583D02*
X35732Y45260D01*
X25886Y38583D02*
X29054D01*
X24533Y39936D02*
X25886Y38583D01*
X24533Y39936D02*
Y43536D01*
X39773Y58776D01*
Y63144D01*
X39494Y63424D02*
X39773Y63144D01*
X25593Y63424D02*
X39494D01*
X24780Y62611D02*
X25593Y63424D01*
X24780Y61400D02*
Y62611D01*
X55899Y10200D02*
Y45603D01*
X51762Y49740D02*
X55899Y45603D01*
X48800Y49740D02*
X51762D01*
X12903Y69040D02*
X14200D01*
X12189Y68326D02*
X12903Y69040D01*
X12189Y12040D02*
Y68326D01*
Y12040D02*
X13992Y10236D01*
X18005D01*
Y19860D01*
X16000D02*
X18005D01*
X30883Y30020D02*
X41400D01*
X27403Y26540D02*
X30883Y30020D01*
X27403Y10919D02*
Y26540D01*
X21640Y5156D02*
X27403Y10919D01*
X16583Y5156D02*
X21640D01*
X15186Y6553D02*
X16583Y5156D01*
X8400Y46200D02*
Y47451D01*
X7388Y48463D02*
X8400Y47451D01*
X6524Y48463D02*
X7388D01*
X4442Y50546D02*
X6524Y48463D01*
X4442Y50546D02*
Y57440D01*
X6600D01*
X13089Y8357D02*
X18818D01*
X19700Y9239D01*
Y61400D01*
X74400Y10200D02*
Y51200D01*
X66900Y58700D02*
Y66800D01*
Y58700D02*
X74400Y51200D01*
X49400Y57560D02*
X51700D01*
Y68600D01*
X14833Y17320D02*
X16000D01*
X13992Y18161D02*
X14833Y17320D01*
X13992Y18161D02*
Y59741D01*
X16202Y61951D01*
Y65786D01*
X15488Y66500D02*
X16202Y65786D01*
X14200Y66500D02*
X15488D01*
X46765Y47200D02*
X48800D01*
X45031Y45466D02*
X46765Y47200D01*
X45031Y18161D02*
Y45466D01*
Y18161D02*
X45992Y17200D01*
X7388Y36480D02*
X8900D01*
X6626Y35718D02*
X7388Y36480D01*
X6626Y18062D02*
Y35718D01*
Y18062D02*
X7388Y17300D01*
X9000D01*
X49400Y53940D02*
Y57560D01*
X48800Y53340D02*
X49400Y53940D01*
X48800Y49740D02*
Y53340D01*
D28*
X73900Y66800D02*
D03*
X66900D02*
D03*
D29*
X8900Y31400D02*
D03*
Y33940D02*
D03*
X48800Y49740D02*
D03*
X48000Y26240D02*
D03*
X6600Y54900D02*
D03*
Y52360D02*
D03*
X48800Y47200D02*
D03*
X49400Y57560D02*
D03*
X6000Y64960D02*
D03*
Y62420D02*
D03*
X47900Y34700D02*
D03*
Y32160D02*
D03*
X9000Y14760D02*
D03*
X8800Y23660D02*
D03*
Y21120D02*
D03*
X47800Y17200D02*
D03*
D30*
X65200Y3700D02*
D03*
X5800Y8900D02*
D03*
X74400Y78400D02*
D03*
X6700Y77000D02*
D03*
D31*
X48000Y23700D02*
D03*
D32*
Y21160D02*
D03*
X8900Y36480D02*
D03*
X6600Y57440D02*
D03*
X48800Y44660D02*
D03*
X49400Y60100D02*
D03*
X6000Y67500D02*
D03*
X47900Y37240D02*
D03*
X9000Y17300D02*
D03*
X8800Y26200D02*
D03*
X47800Y14660D02*
D03*
D33*
X8400Y46200D02*
D03*
D34*
X5860D02*
D03*
D35*
X51700Y68600D02*
D03*
X74400Y10200D02*
D03*
D36*
X55899Y51200D02*
D03*
Y10200D02*
D03*
X74400Y51200D02*
D03*
D37*
X14200Y63960D02*
D03*
Y66500D02*
D03*
Y69040D02*
D03*
Y71580D02*
D03*
X27320Y61400D02*
D03*
X29860D02*
D03*
X32400D02*
D03*
X34940D02*
D03*
X37480D02*
D03*
D38*
X24780D02*
D03*
X22240D02*
D03*
X19700D02*
D03*
X41400Y47800D02*
D03*
X16000D02*
D03*
Y45260D02*
D03*
Y42720D02*
D03*
Y40180D02*
D03*
Y37640D02*
D03*
Y35100D02*
D03*
Y32560D02*
D03*
Y30020D02*
D03*
Y27480D02*
D03*
Y24940D02*
D03*
Y22400D02*
D03*
Y19860D02*
D03*
Y17320D02*
D03*
Y14780D02*
D03*
Y12240D02*
D03*
X41400D02*
D03*
Y14780D02*
D03*
Y17320D02*
D03*
Y19860D02*
D03*
Y22400D02*
D03*
Y24940D02*
D03*
Y27480D02*
D03*
Y30020D02*
D03*
Y32560D02*
D03*
Y35100D02*
D03*
Y37640D02*
D03*
Y40180D02*
D03*
Y42720D02*
D03*
Y45260D02*
D03*
D39*
X3299Y22174D02*
D03*
X20698Y7239D02*
D03*
X27403Y41958D02*
D03*
X7286Y38964D02*
D03*
X15186Y6553D02*
D03*
M02*
