G04*
G04 #@! TF.GenerationSoftware,Altium Limited,Altium Designer,24.0.1 (36)*
G04*
G04 Layer_Color=65535*
%FSLAX43Y43*%
%MOMM*%
G71*
G04*
G04 #@! TF.SameCoordinates,EBF473D2-59F7-4800-8C67-C9A5536F996E*
G04*
G04*
G04 #@! TF.FilePolarity,Positive*
G04*
G01*
G75*
%ADD10C,0.200*%
%ADD11C,0.254*%
%ADD12C,0.127*%
D10*
X13433Y47927D02*
G03*
X13433Y47927I-100J0D01*
G01*
X44600Y19660D02*
X51500D01*
X44600D02*
Y27660D01*
X51500D01*
Y19660D02*
Y27660D01*
X5400Y37980D02*
X12300D01*
Y29980D02*
Y37980D01*
X5400Y29980D02*
X12300D01*
X5400D02*
Y37980D01*
X4160Y49300D02*
X10160D01*
X4160Y42800D02*
Y49300D01*
Y42800D02*
X10160D01*
Y49300D01*
X4900Y50640D02*
Y59240D01*
Y50640D02*
X8300D01*
Y59240D01*
X4900D02*
X8300D01*
X47100Y42860D02*
X50500D01*
X47100D02*
Y51460D01*
X50500D01*
Y42860D02*
Y51460D01*
X52500Y55800D02*
Y61800D01*
X46000D02*
X52500D01*
X46000Y55800D02*
Y61800D01*
Y55800D02*
X52500D01*
X2500Y61000D02*
Y69000D01*
Y61000D02*
X9400D01*
Y69000D01*
X2500D02*
X9400D01*
X44400Y30740D02*
Y38740D01*
Y30740D02*
X51300D01*
Y38740D01*
X44400D02*
X51300D01*
X12100Y13000D02*
Y19000D01*
X5600D02*
X12100D01*
X5600Y13000D02*
Y19000D01*
Y13000D02*
X12100D01*
X5300Y19700D02*
Y27700D01*
Y19700D02*
X12200D01*
Y27700D01*
X5300D02*
X12200D01*
X44700Y12960D02*
Y18960D01*
Y12960D02*
X51200D01*
Y18960D01*
X44700D02*
X51200D01*
X11914Y63833D02*
Y63500D01*
Y63666D01*
X12914D01*
X12747Y63833D01*
D11*
X43300Y75000D02*
X54200D01*
X43300Y63900D02*
Y75000D01*
X54200Y63900D02*
Y75000D01*
X46050Y63900D02*
X51350D01*
X43400D02*
X46050D01*
X51350D02*
X54200D01*
X53650Y7700D02*
X76650D01*
X53650Y53700D02*
X76650D01*
X53650Y7700D02*
Y53700D01*
X76650Y7700D02*
Y53700D01*
X44720Y68299D02*
X45736D01*
X58182Y68426D02*
X59198D01*
X58690Y68934D02*
Y67918D01*
X52195Y20332D02*
Y20998D01*
Y20665D01*
X50196D01*
X50529Y20332D01*
X8054Y39226D02*
Y38560D01*
Y38893D01*
X10053D01*
X9720Y39226D01*
X3114Y45354D02*
X3780D01*
X3447D01*
Y47353D01*
X3114Y47020D01*
X5754Y60286D02*
Y59620D01*
Y59953D01*
X7753D01*
X7420Y60286D01*
X49646Y41814D02*
Y42480D01*
Y42147D01*
X47647D01*
X47980Y41814D01*
X48554Y62846D02*
Y62180D01*
Y62513D01*
X50553D01*
X50220Y62846D01*
X72917Y56025D02*
X72409D01*
X72155Y55772D01*
Y54756D01*
X72409Y54502D01*
X72917D01*
X73171Y54756D01*
Y55772D01*
X72917Y56025D01*
X73679Y55518D02*
Y54756D01*
X73933Y54502D01*
X74694D01*
Y55518D01*
X75456Y55772D02*
Y55518D01*
X75202D01*
X75710D01*
X75456D01*
Y54756D01*
X75710Y54502D01*
X76472Y55264D02*
X77487D01*
X54629Y56152D02*
X54121D01*
X53867Y55899D01*
Y54883D01*
X54121Y54629D01*
X54629D01*
X54883Y54883D01*
Y55899D01*
X54629Y56152D01*
X55391Y55645D02*
Y54883D01*
X55645Y54629D01*
X56406D01*
Y55645D01*
X57168Y55899D02*
Y55645D01*
X56914D01*
X57422D01*
X57168D01*
Y54883D01*
X57422Y54629D01*
X58184Y55391D02*
X59199D01*
X58692Y55899D02*
Y54883D01*
X73372Y3454D02*
Y3962D01*
Y3708D01*
X74896D01*
Y3454D01*
Y3962D01*
Y4724D02*
X73880D01*
Y5485D01*
X74134Y5739D01*
X74896D01*
X74134Y6247D02*
Y7263D01*
X54872Y3204D02*
Y3712D01*
Y3458D01*
X56396D01*
Y3204D01*
Y3712D01*
Y4474D02*
X55380D01*
Y5235D01*
X55634Y5489D01*
X56396D01*
X55634Y5997D02*
Y7013D01*
X55126Y6505D02*
X56142D01*
X5154Y70246D02*
Y69579D01*
Y69913D01*
X7153D01*
X6820Y70246D01*
X47054Y39986D02*
Y39320D01*
Y39653D01*
X49053D01*
X48720Y39986D01*
X2650Y18570D02*
Y17904D01*
Y18237D01*
X4649D01*
X4316Y18570D01*
X2704Y27597D02*
Y26931D01*
Y27264D01*
X4703D01*
X4370Y27597D01*
X48646Y11914D02*
Y12580D01*
Y12247D01*
X46647D01*
X46980Y11914D01*
X10814Y48105D02*
Y49629D01*
X11575D01*
X11829Y49375D01*
Y48867D01*
X11575Y48613D01*
X10814D01*
X12337Y48105D02*
X12845D01*
X12591D01*
Y49629D01*
X12337Y49375D01*
X13607D02*
X13861Y49629D01*
X14368D01*
X14622Y49375D01*
Y49121D01*
X14368Y48867D01*
X14115D01*
X14368D01*
X14622Y48613D01*
Y48359D01*
X14368Y48105D01*
X13861D01*
X13607Y48359D01*
X8887Y52741D02*
Y54265D01*
X9648D01*
X9902Y54011D01*
Y53503D01*
X9648Y53249D01*
X8887D01*
X10410Y52741D02*
X10918D01*
X10664D01*
Y54265D01*
X10410Y54011D01*
X12695Y52741D02*
X11680D01*
X12695Y53757D01*
Y54011D01*
X12441Y54265D01*
X11934D01*
X11680Y54011D01*
X2664Y71272D02*
Y72796D01*
X3425D01*
X3679Y72542D01*
Y72034D01*
X3425Y71780D01*
X2664D01*
X5203Y72796D02*
X4695Y72542D01*
X4187Y72034D01*
Y71526D01*
X4441Y71272D01*
X4949D01*
X5203Y71526D01*
Y71780D01*
X4949Y72034D01*
X4187D01*
X51813Y64799D02*
X53337D01*
Y64037D01*
X53083Y63783D01*
X52575D01*
X52321Y64037D01*
Y64799D01*
X51813Y62513D02*
X53337D01*
X52575Y63275D01*
Y62259D01*
X63901Y56153D02*
Y54883D01*
X64155Y54629D01*
X64662D01*
X64916Y54883D01*
Y56153D01*
X65424Y55899D02*
X65678Y56153D01*
X66186D01*
X66440Y55899D01*
Y55645D01*
X66186Y55391D01*
X65932D01*
X66186D01*
X66440Y55137D01*
Y54883D01*
X66186Y54629D01*
X65678D01*
X65424Y54883D01*
X14493Y62289D02*
Y61019D01*
X14747Y60765D01*
X15255D01*
X15509Y61019D01*
Y62289D01*
X17033Y60765D02*
X16017D01*
X17033Y61781D01*
Y62035D01*
X16779Y62289D01*
X16271D01*
X16017Y62035D01*
X13382Y56032D02*
Y54762D01*
X13636Y54508D01*
X14144D01*
X14398Y54762D01*
Y56032D01*
X14906Y54508D02*
X15414D01*
X15160D01*
Y56032D01*
X14906Y55778D01*
X57883Y76325D02*
X57629Y76579D01*
X57121D01*
X56868Y76325D01*
Y76071D01*
X57121Y75817D01*
X57629D01*
X57883Y75563D01*
Y75309D01*
X57629Y75055D01*
X57121D01*
X56868Y75309D01*
X58391Y76579D02*
Y75055D01*
X58899Y75563D01*
X59407Y75055D01*
Y76579D01*
X59915Y75055D02*
X60422D01*
X60168D01*
Y76579D01*
X59915Y76325D01*
X16292Y21501D02*
Y19977D01*
X15531D01*
X15277Y20231D01*
Y20739D01*
X15531Y20993D01*
X16292D01*
X14769Y21501D02*
X14261D01*
X14515D01*
Y19977D01*
X14769Y20231D01*
X13499Y21501D02*
X12992D01*
X13245D01*
Y19977D01*
X13499Y20231D01*
X16873Y14506D02*
Y12982D01*
X16112D01*
X15858Y13236D01*
Y13744D01*
X16112Y13998D01*
X16873D01*
X15350Y14506D02*
X14842D01*
X15096D01*
Y12982D01*
X15350Y13236D01*
X14080D02*
X13826Y12982D01*
X13319D01*
X13065Y13236D01*
Y14252D01*
X13319Y14506D01*
X13826D01*
X14080Y14252D01*
Y13236D01*
X46830Y28338D02*
Y29862D01*
X47592D01*
X47846Y29608D01*
Y29100D01*
X47592Y28846D01*
X46830D01*
X48354Y28592D02*
X48608Y28338D01*
X49116D01*
X49370Y28592D01*
Y29608D01*
X49116Y29862D01*
X48608D01*
X48354Y29608D01*
Y29354D01*
X48608Y29100D01*
X49370D01*
X49833Y10139D02*
Y11663D01*
X50595D01*
X50849Y11409D01*
Y10901D01*
X50595Y10647D01*
X49833D01*
X51357Y11409D02*
X51611Y11663D01*
X52119D01*
X52373Y11409D01*
Y11155D01*
X52119Y10901D01*
X52373Y10647D01*
Y10393D01*
X52119Y10139D01*
X51611D01*
X51357Y10393D01*
Y10647D01*
X51611Y10901D01*
X51357Y11155D01*
Y11409D01*
X51611Y10901D02*
X52119D01*
X5559Y40234D02*
Y41757D01*
X6321D01*
X6575Y41503D01*
Y40995D01*
X6321Y40741D01*
X5559D01*
X7083Y41757D02*
X8098D01*
Y41503D01*
X7083Y40488D01*
Y40234D01*
X44130Y51238D02*
Y52762D01*
X44892D01*
X45146Y52508D01*
Y52000D01*
X44892Y51746D01*
X44130D01*
X46670Y52762D02*
X45654D01*
Y52000D01*
X46162Y52254D01*
X46416D01*
X46670Y52000D01*
Y51492D01*
X46416Y51238D01*
X45908D01*
X45654Y51492D01*
X44230Y39638D02*
Y41162D01*
X44992D01*
X45246Y40908D01*
Y40400D01*
X44992Y40146D01*
X44230D01*
X45754Y40908D02*
X46008Y41162D01*
X46516D01*
X46770Y40908D01*
Y40654D01*
X46516Y40400D01*
X46262D01*
X46516D01*
X46770Y40146D01*
Y39892D01*
X46516Y39638D01*
X46008D01*
X45754Y39892D01*
X39777Y72918D02*
Y74442D01*
X40539D01*
X40793Y74188D01*
Y73680D01*
X40539Y73426D01*
X39777D01*
X42317Y72918D02*
X41301D01*
X42317Y73934D01*
Y74188D01*
X42063Y74442D01*
X41555D01*
X41301Y74188D01*
X7596Y71199D02*
Y72723D01*
X8358D01*
X8612Y72469D01*
Y71961D01*
X8358Y71707D01*
X7596D01*
X9120Y71199D02*
X9628D01*
X9374D01*
Y72723D01*
X9120Y72469D01*
D12*
X16800Y62670D02*
Y72870D01*
X11000Y62670D02*
X16800D01*
X11000D02*
Y72870D01*
X16800D01*
X13968Y1837D02*
X24762D01*
X13968D02*
Y2337D01*
Y49939D01*
X24762Y937D02*
X32892D01*
X24762D02*
Y1837D01*
X32892Y937D02*
Y1837D01*
X42924D01*
Y49939D01*
X19700Y53472D02*
X37700D01*
X13968Y49939D02*
X19700D01*
Y53472D01*
X37700Y49939D02*
Y53472D01*
Y49939D02*
X42924D01*
M02*
