M48
;Layer_Color=9474304
;FILE_FORMAT=2:4
INCH,LZ
;TYPE=PLATED
T02F00S00C0.0394
T03F00S00C0.0398
T04F00S00C0.0402
T05F00S00C0.0512
T06F00S00C0.0591
T07F00S00C0.1181
%
T02
X005979Y00258
X008149Y00285
X022008Y004016
X029291
X019213Y017583
Y018583
Y019583
X016299Y018819
Y014819
X018858Y014661
Y013661
Y012661
X018898Y010331
Y009331
Y008331
X018819Y006772
Y005772
X016299Y005819
Y011819
X010789Y016519
X003504Y014362
Y013362
Y012362
X003465Y010315
Y009315
Y008315
X003543Y006811
Y005811
X006299Y006819
Y008819
Y009819
Y010819
X001299Y00873
X002869Y01534
X003307Y018189
X002307
X002598Y020614
Y021614
Y022614
X002362Y024575
Y025575
Y026575
X005591Y026181
Y025181
Y027181
Y028181
X007756Y024173
X008756
X009756
X010756
X019449Y023661
Y022661
X022008Y020157
X029291
T03
X011756Y024173
X012756
X013756
X014756
T04
X006299Y004819
Y005819
Y007819
Y011819
Y012819
Y013819
Y014819
Y015819
Y016819
Y017819
Y018819
X016299Y017819
Y016819
Y015819
Y013819
Y012819
Y010819
Y009819
Y008819
Y007819
Y006819
Y004819
T05
X01811Y027008
T06
X020354Y027008
T07
X002283Y003504
X025669Y001457
X002638Y030315
X029291Y030866
M30
